<?xml version="1.0" standalone="no"?>
<!DOCTYPE svg PUBLIC "-//W3C//DTD SVG 20010904//EN"
 "http://www.w3.org/TR/2001/REC-SVG-20010904/DTD/svg10.dtd">
<svg version="1.0" xmlns="http://www.w3.org/2000/svg"
 width="842.000000pt" height="595.000000pt" viewBox="0 0 842.000000 595.000000"
 preserveAspectRatio="xMidYMid meet">

<g transform="translate(0.000000,595.000000) scale(0.100000,-0.100000)"
fill="#61DAFB" color="#61DAFB" stroke="none">
<path d="M3485 5703 c-49 -14 -91 -26 -93 -28 -2 -1 0 -15 4 -29 4 -17 13 -26
23 -25 34 3 40 -2 50 -38 6 -20 9 -38 8 -39 -5 -4 -116 -34 -126 -34 -5 0 -13
16 -17 36 -6 30 -3 40 14 53 15 12 18 21 11 39 -4 12 -12 22 -16 22 -12 0
-194 -67 -200 -74 -4 -3 -2 -16 4 -28 7 -15 19 -22 38 -23 27 0 31 -6 72 -110
47 -121 51 -140 27 -153 -13 -7 -13 -13 -3 -36 7 -15 18 -25 25 -22 7 3 47 17
88 32 42 15 76 32 76 39 0 29 -13 45 -37 45 -18 0 -27 8 -37 33 -31 74 -32 71
38 94 l65 21 12 -55 c12 -50 11 -57 -5 -69 -21 -15 -15 -64 7 -64 34 -1 177
45 177 56 0 27 -13 44 -35 44 -21 0 -26 10 -54 128 l-31 127 23 20 c26 23 26
66 -1 64 -9 0 -57 -12 -107 -26z m108 0 c4 -3 -2 -12 -13 -20 -26 -18 -25 -36
4 -164 28 -124 39 -149 67 -149 12 0 19 -5 17 -12 -5 -13 -137 -50 -150 -42
-5 3 0 16 11 30 18 23 18 28 4 82 -8 31 -18 60 -22 64 -6 7 -145 -32 -156 -43
-2 -3 6 -33 17 -67 18 -55 24 -64 49 -69 45 -9 30 -25 -45 -52 -65 -23 -92
-23 -68 1 19 19 14 49 -28 163 -46 123 -53 135 -86 135 -45 0 -24 17 58 48 85
33 113 33 79 1 -12 -11 -21 -26 -21 -33 0 -20 22 -80 32 -87 4 -3 42 6 84 19
l75 24 -7 32 c-13 60 -22 74 -50 78 -15 2 -29 8 -31 14 -3 9 33 20 168 53 3 0
9 -2 12 -6z"/>
<path d="M4180 5690 c-14 -4 -35 -5 -47 -3 -12 3 -46 0 -77 -7 -52 -11 -56
-13 -56 -40 0 -21 6 -29 24 -34 22 -5 25 -12 28 -73 3 -57 1 -70 -14 -82 -10
-7 -18 -26 -18 -42 0 -27 3 -29 39 -29 84 0 130 11 134 34 4 20 4 20 6 -1 1
-20 7 -23 49 -25 91 -4 128 -6 210 -14 l82 -7 0 32 c0 22 -5 31 -16 31 -14 0
-15 12 -9 99 7 99 7 100 -20 127 -26 26 -30 27 -107 21 -57 -4 -87 -1 -106 9
-29 15 -63 16 -102 4z m111 -27 c25 -15 34 -15 80 -4 45 12 55 11 89 -4 21 -9
40 -25 42 -34 3 -9 1 -54 -4 -101 -9 -81 -8 -85 14 -101 21 -16 21 -18 5 -25
-24 -9 -127 5 -127 18 0 5 9 17 20 26 15 14 20 32 22 96 3 95 -9 110 -72 94
l-40 -10 0 -89 c0 -48 5 -91 10 -94 6 -3 10 -13 10 -22 0 -13 -9 -14 -57 -8
-32 4 -60 8 -62 10 -1 2 4 14 13 27 12 16 16 45 16 105 0 72 -3 84 -20 93 -14
8 -29 7 -55 -4 l-35 -15 0 -86 c0 -67 3 -87 15 -91 26 -10 17 -31 -16 -38 -83
-16 -127 2 -78 32 19 12 20 19 14 80 -9 89 -12 99 -35 105 -11 3 -20 10 -20
16 0 24 101 43 115 22 3 -6 19 -4 38 4 43 19 83 18 118 -2z m-63 -121 c2 -72
1 -82 -17 -91 -36 -20 -48 -4 -55 70 -3 39 -4 75 0 80 8 13 45 29 59 25 6 -1
11 -39 13 -84z m184 -7 c-3 -53 -8 -74 -22 -86 -10 -8 -20 -24 -23 -35 -4 -16
-5 -16 -6 4 0 12 -8 25 -16 28 -11 5 -15 23 -15 79 0 79 4 85 55 82 l30 -2 -3
-70z"/>
<path d="M3764 5659 c-40 -12 -84 -56 -84 -85 0 -26 24 -54 46 -54 12 0 11 -5
-5 -26 -12 -15 -21 -41 -21 -59 0 -50 33 -85 81 -85 22 0 53 7 68 15 18 9 42
12 65 8 39 -6 96 12 96 32 0 16 -35 47 -43 38 -4 -3 -7 -2 -7 3 -1 25 -21 160
-26 176 -13 41 -96 59 -170 37z m140 -33 c20 -19 25 -38 31 -110 4 -47 11 -87
16 -87 5 -1 14 -2 21 -3 6 0 13 -6 15 -13 6 -18 -46 -28 -80 -15 -25 10 -34 8
-55 -8 -15 -12 -40 -20 -63 -20 -33 0 -42 5 -59 32 -17 28 -17 34 -5 58 16 32
45 52 98 69 31 10 37 17 37 40 0 34 -17 51 -51 51 -31 0 -46 -15 -51 -50 -4
-32 -43 -41 -52 -12 -10 29 1 46 42 70 52 31 125 30 156 -2z m-69 -49 c0 -11
-12 -24 -31 -32 -33 -14 -35 -11 -18 43 6 20 49 10 49 -11z"/>
<path d="M3831 5507 c-56 -28 -59 -97 -5 -97 35 0 54 27 47 65 -8 41 -14 46
-42 32z m22 -36 c6 -22 -26 -57 -42 -46 -16 9 -14 26 6 47 21 23 29 23 36 -1z"/>
<path d="M4594 5625 c-5 -22 -2 -31 16 -45 21 -16 22 -18 8 -86 -11 -59 -16
-69 -35 -72 -18 -3 -23 -10 -23 -33 0 -16 1 -29 3 -29 2 0 29 -5 60 -10 31 -6
69 -13 84 -15 15 -2 62 -13 103 -24 41 -12 76 -21 76 -21 10 -1 11 55 2 69 -9
15 -8 32 6 85 18 65 19 66 52 66 18 0 36 -4 39 -10 7 -12 -35 -150 -46 -150
-14 0 -39 -31 -39 -49 0 -26 147 -72 161 -50 12 19 11 49 -1 49 -16 0 -12 28
16 108 21 61 23 79 14 101 -15 38 -63 63 -125 65 -36 2 -61 9 -80 24 -30 24
-82 37 -120 30 -13 -3 -26 0 -28 5 -2 6 -33 13 -70 15 -65 4 -66 4 -73 -23z
m129 -8 c4 -10 20 -13 59 -9 48 4 58 1 87 -24 27 -22 42 -27 76 -25 53 2 109
-20 125 -49 10 -18 7 -38 -15 -108 -23 -72 -25 -89 -14 -109 7 -12 10 -25 7
-28 -7 -8 -128 36 -128 46 0 5 10 13 23 18 18 7 29 26 47 87 25 87 21 107 -25
112 -59 7 -69 -2 -90 -84 -15 -62 -17 -79 -6 -96 18 -30 7 -33 -60 -17 l-61
14 26 28 c29 31 45 81 48 153 l3 49 -35 3 c-52 4 -69 -14 -85 -93 -13 -61 -13
-72 0 -92 13 -19 13 -24 3 -28 -23 -9 -121 9 -126 23 -2 6 4 12 13 12 21 0 41
50 50 121 6 51 5 58 -15 72 -12 8 -19 20 -15 26 9 16 102 14 108 -2z m87 -68
c0 -5 -7 -42 -16 -81 -12 -53 -21 -72 -35 -75 -11 -3 -19 -15 -20 -27 0 -13
-2 -16 -6 -6 -2 8 -9 25 -15 36 -11 23 6 129 24 152 13 15 68 16 68 1z"/>
<path d="M2985 5506 c-15 -10 -19 -24 -17 -53 2 -27 -3 -47 -18 -65 -18 -23
-19 -30 -8 -48 9 -15 20 -19 35 -15 20 5 28 -4 63 -75 43 -86 75 -116 114
-106 35 9 83 52 94 85 9 27 8 32 -16 47 -15 10 -27 13 -29 7 -8 -23 -31 -46
-41 -40 -8 6 -72 131 -72 142 0 2 16 9 35 15 30 10 35 15 29 33 -10 35 -19 39
-57 24 l-35 -15 -17 39 c-19 42 -31 47 -60 25z m45 -29 c0 -7 7 -23 16 -35 14
-21 17 -21 49 -8 47 20 56 1 11 -21 -20 -9 -36 -20 -36 -23 0 -4 18 -44 40
-88 43 -88 65 -102 94 -61 8 12 19 18 25 15 18 -12 -14 -60 -52 -81 -32 -17
-37 -17 -59 -3 -12 8 -43 54 -66 102 -24 47 -46 86 -49 86 -2 0 -13 -5 -24
-10 -24 -13 -26 5 -4 34 8 11 15 39 15 62 0 25 5 44 13 47 16 6 27 -1 27 -16z"/>
<path d="M5221 5457 c-19 -6 -48 -29 -64 -49 -62 -77 -41 -189 43 -237 50 -28
129 -29 161 -2 l24 20 -22 22 c-18 18 -26 20 -50 12 -54 -19 -104 24 -86 74 8
20 11 21 33 10 14 -8 51 -25 83 -40 l58 -26 15 36 c46 108 -78 222 -195 180z
m102 -21 c47 -19 87 -70 87 -111 0 -56 -18 -60 -96 -20 -38 19 -74 35 -80 35
-31 0 -33 -91 -3 -121 18 -18 29 -21 70 -16 37 5 49 3 49 -7 0 -29 -82 -36
-130 -11 -43 22 -80 76 -80 116 0 48 39 111 80 131 42 22 60 22 103 4z"/>
<path d="M5255 5390 c-21 -23 -22 -21 31 -48 31 -16 44 -18 53 -9 12 12 14 37
5 61 -9 23 -67 21 -89 -4z m73 -27 c3 -20 1 -21 -27 -10 -39 15 -42 40 -3 35
19 -2 28 -9 30 -25z"/>
<path d="M5478 5325 c-8 -18 -8 -28 1 -38 13 -17 8 -35 -31 -98 -23 -38 -32
-45 -51 -42 -17 3 -26 -2 -34 -20 -11 -24 -9 -27 57 -66 38 -23 72 -41 77 -41
15 0 32 37 26 58 -5 21 51 132 67 132 4 0 15 -11 24 -25 18 -27 63 -34 84 -13
29 29 1 98 -41 98 -9 0 -24 9 -34 19 -15 16 -110 61 -129 61 -2 0 -9 -11 -16
-25z m112 -46 c0 -15 7 -19 35 -19 46 0 80 -32 65 -60 -15 -28 -48 -25 -62 5
-7 16 -19 25 -34 25 -18 0 -31 -14 -59 -65 -20 -36 -35 -75 -33 -87 4 -30 -18
-28 -78 7 -47 27 -48 41 -5 47 33 4 101 128 85 155 -20 34 -7 43 42 26 31 -11
44 -20 44 -34z"/>
<path d="M2785 5295 c-16 -8 -37 -24 -46 -34 -8 -10 -24 -21 -35 -25 -11 -3
-37 -24 -59 -46 -37 -38 -37 -40 -22 -63 11 -18 22 -23 39 -20 20 4 34 -10 96
-97 59 -82 72 -107 68 -129 -3 -15 0 -34 9 -45 13 -18 17 -16 80 28 36 26 65
50 65 54 -1 18 -30 44 -44 39 -15 -6 -54 29 -43 39 3 3 20 13 38 23 38 20 69
73 69 116 0 41 -43 125 -76 149 -36 26 -102 31 -139 11z m139 -35 c41 -37 60
-87 53 -142 -7 -49 -21 -66 -75 -90 l-43 -19 20 -32 c11 -18 30 -34 43 -35 13
-2 27 -7 31 -11 10 -9 -90 -84 -102 -77 -4 3 -6 18 -4 33 3 21 -9 47 -52 108
-77 110 -101 135 -130 135 -14 0 -25 5 -25 12 0 19 52 68 72 68 9 0 25 11 34
25 40 62 123 73 178 25z"/>
<path d="M2789 5236 c-13 -6 -28 -23 -33 -37 -8 -23 -3 -36 34 -88 38 -54 47
-61 76 -61 56 0 72 65 33 130 -35 58 -71 76 -110 56z m56 -22 c19 -8 55 -75
55 -103 0 -22 -25 -51 -43 -51 -12 0 -87 109 -87 126 0 27 39 41 75 28z"/>
<path d="M2411 5184 c-12 -15 -21 -33 -21 -41 0 -19 45 -63 65 -63 23 0 65 45
65 70 0 27 -35 60 -64 60 -15 0 -33 -11 -45 -26z m85 -19 c8 -31 -10 -55 -42
-55 -34 0 -51 36 -28 61 25 28 62 25 70 -6z"/>
<path d="M2491 5075 c-22 -24 -41 -51 -41 -59 0 -20 27 -38 48 -32 12 4 27 -4
48 -26 63 -69 66 -75 55 -96 -8 -15 -6 -23 8 -36 9 -9 21 -16 25 -16 10 0 120
90 124 101 7 17 -20 39 -47 39 -22 0 -39 16 -91 85 -36 46 -70 85 -76 85 -6 0
-30 -20 -53 -45z m128 -67 c52 -66 66 -78 91 -78 17 0 30 -3 30 -8 0 -11 -107
-92 -113 -85 -3 3 -4 17 -1 32 7 37 -91 147 -124 139 -12 -4 -24 -3 -27 1 -7
12 66 94 75 84 5 -4 35 -43 69 -85z"/>
<path d="M5880 5029 c-88 -35 -130 -151 -84 -230 25 -42 87 -79 134 -79 46 0
63 12 58 41 -2 20 -10 25 -48 29 -58 7 -70 15 -70 48 0 62 91 140 124 106 13
-13 13 -18 -2 -43 -15 -27 -15 -30 1 -55 34 -51 97 -22 97 45 0 47 -40 102
-93 128 -47 23 -78 25 -117 10z m133 -35 c37 -27 70 -90 63 -119 -8 -31 -45
-43 -62 -20 -11 14 -10 21 1 39 18 27 10 60 -20 76 -50 27 -139 -54 -139 -126
0 -46 28 -74 76 -74 28 0 38 -4 38 -16 0 -24 -79 -13 -120 16 -37 27 -50 56
-50 115 0 36 6 52 32 81 18 20 41 40 52 45 31 13 100 4 129 -17z"/>
<path d="M5626 4998 c-20 -29 -20 -52 0 -72 36 -36 94 -9 94 44 0 50 -66 69
-94 28z m73 -12 c16 -19 -3 -56 -28 -56 -29 0 -45 25 -31 49 12 24 42 27 59 7z"/>
<path d="M2372 4987 c-6 -7 -16 -25 -21 -40 -6 -16 -15 -26 -19 -23 -12 7 -26
-5 -60 -53 -31 -42 -31 -45 -15 -63 11 -13 25 -17 40 -13 18 4 34 -5 73 -41
42 -39 48 -50 43 -74 -4 -22 0 -31 17 -40 21 -11 28 -7 81 47 57 56 58 59 44
80 -12 17 -22 21 -44 17 -24 -5 -34 1 -69 43 -23 26 -42 51 -42 54 0 3 15 12
33 20 38 17 47 51 21 80 -20 22 -66 25 -82 6z m76 -35 c3 -18 -4 -26 -32 -37
-22 -9 -36 -22 -36 -33 0 -10 24 -42 54 -71 41 -40 60 -52 75 -48 38 10 34
-14 -10 -59 -51 -52 -71 -57 -63 -16 5 24 -2 35 -51 81 -49 46 -60 52 -86 47
-37 -7 -37 7 -1 54 16 21 34 34 43 32 11 -2 19 6 24 25 10 40 25 54 54 51 18
-2 27 -10 29 -26z"/>
<path d="M6095 4781 c-40 -25 -61 -49 -80 -96 -44 -104 72 -234 187 -211 40 8
94 49 113 86 67 130 -99 296 -220 221z m165 -49 c68 -70 73 -130 17 -190 -84
-90 -202 -57 -247 68 -11 32 -10 41 8 75 21 41 56 78 82 88 8 3 33 6 54 6 35
1 46 -5 86 -47z"/>
<path d="M6172 4715 c-50 -22 -92 -70 -92 -108 0 -18 5 -38 12 -45 20 -20 72
-14 107 12 46 34 60 56 61 92 0 49 -37 70 -88 49z m66 -58 c-2 -26 -13 -39
-52 -64 -55 -38 -59 -39 -80 -17 -22 21 -20 38 9 72 57 68 129 73 123 9z"/>
<path d="M2143 4739 c-101 -65 -103 -199 -3 -265 53 -35 126 -38 167 -8 52 39
68 71 68 134 0 32 -3 61 -6 65 -4 3 -19 3 -33 -1 -22 -5 -26 -11 -25 -38 5
-76 -33 -103 -98 -69 -21 11 -46 33 -55 50 -15 25 -16 32 -4 48 12 16 17 17
44 6 56 -23 100 25 68 74 -21 32 -77 33 -123 4z m101 -5 c21 -8 21 -38 0 -55
-12 -10 -20 -10 -35 -1 -24 15 -52 15 -67 0 -53 -53 68 -178 149 -153 24 8 53
68 44 95 -3 11 0 20 10 24 16 6 20 -13 16 -64 -4 -36 -48 -90 -88 -107 -31
-12 -40 -12 -84 2 -93 31 -129 120 -79 199 32 54 87 78 134 60z"/>
<path d="M6367 4549 c-13 -8 -17 -18 -13 -35 5 -20 -3 -30 -50 -65 -47 -35
-60 -40 -78 -31 -24 11 -56 -1 -56 -20 0 -22 83 -139 95 -134 8 3 11 -2 8 -13
-5 -21 65 -143 78 -135 5 3 6 -1 4 -8 -5 -14 59 -158 71 -158 19 0 44 24 44
43 0 19 15 30 79 62 76 37 101 62 101 101 0 24 -36 87 -64 113 -17 16 -26 35
-26 55 0 34 -26 79 -59 102 -11 8 -21 23 -21 32 0 15 -77 102 -90 102 -3 0
-13 -5 -23 -11z m93 -90 c0 -9 18 -35 40 -57 34 -33 40 -46 40 -80 0 -31 5
-44 20 -52 28 -15 70 -84 70 -114 0 -34 -28 -58 -106 -92 -54 -23 -66 -33 -71
-56 -3 -15 -9 -28 -14 -28 -5 0 -22 27 -39 59 -30 61 -26 79 13 59 13 -6 36 1
90 29 58 31 73 43 75 64 2 19 -4 33 -24 48 -15 11 -33 21 -41 21 -29 0 -142
-74 -145 -94 -2 -12 -7 -21 -13 -20 -13 1 -67 93 -61 103 3 4 18 6 34 3 20 -3
46 7 94 38 37 23 69 48 72 56 7 17 -44 74 -66 74 -27 0 -138 -81 -144 -106 -6
-24 -34 -34 -34 -13 0 6 -13 28 -30 49 -38 47 -37 53 0 45 52 -11 168 73 157
114 -3 11 0 22 7 24 15 6 76 -53 76 -74z m-12 -75 c34 -23 27 -38 -37 -77 -70
-44 -122 -48 -111 -8 5 20 100 99 120 101 3 0 16 -7 28 -16z m97 -164 c26 -28
13 -46 -59 -82 -54 -27 -67 -30 -80 -19 -32 27 -19 54 42 88 68 38 74 39 97
13z"/>
<path d="M1850 4525 c-7 -8 -9 -15 -5 -15 4 0 -11 -18 -33 -39 -89 -86 -77
-205 23 -247 50 -20 89 -7 146 52 67 69 97 88 114 74 54 -45 -35 -140 -130
-140 -32 0 -35 -2 -35 -29 0 -29 2 -30 76 -47 79 -17 99 -13 92 21 -2 10 13
33 34 54 71 72 72 172 0 230 -56 47 -97 43 -169 -18 -32 -26 -67 -58 -77 -70
-29 -32 -56 -28 -56 10 0 43 46 85 104 93 33 5 47 13 51 28 8 25 1 31 -51 46
-54 16 -69 15 -84 -3z m83 -16 c40 -11 50 -29 15 -29 -97 0 -185 -136 -106
-164 24 -8 33 -3 104 62 66 61 83 72 113 72 56 0 111 -61 111 -122 0 -34 -42
-108 -72 -126 -21 -12 -26 -21 -21 -39 6 -26 8 -26 -89 -2 -44 11 -50 29 -10
29 39 1 105 33 130 65 27 35 29 86 3 109 -28 25 -52 14 -131 -61 -73 -69 -105
-80 -155 -53 -26 14 -55 66 -55 99 0 34 37 97 70 121 16 12 30 28 30 36 0 17
12 17 63 3z"/>
<path d="M1964 1976 c-10 -8 -19 -23 -19 -33 0 -13 -22 -29 -74 -54 -82 -40
-101 -59 -101 -102 0 -36 36 -102 67 -122 17 -12 23 -25 23 -53 0 -29 8 -49
33 -78 18 -21 39 -51 46 -66 8 -15 29 -41 47 -59 30 -29 36 -31 58 -21 19 8
24 18 23 39 -2 22 7 33 55 67 47 32 60 37 72 27 17 -14 56 1 56 21 0 10 -74
124 -89 138 -4 3 -19 31 -36 64 -16 32 -38 64 -47 70 -10 7 -15 15 -12 18 6 6
-67 158 -76 158 -4 0 -15 -6 -26 -14z m51 -66 c32 -63 32 -71 -3 -64 -20 4
-46 -2 -83 -21 -66 -33 -89 -53 -89 -75 0 -27 39 -70 63 -70 36 0 141 64 147
89 8 35 21 30 51 -19 35 -57 35 -63 2 -56 -41 9 -167 -69 -171 -106 -3 -28 36
-68 67 -68 28 1 136 84 139 108 5 32 17 27 50 -20 39 -57 40 -64 3 -60 -23 3
-44 -6 -84 -34 -63 -47 -68 -53 -64 -81 2 -13 -1 -23 -6 -23 -18 0 -76 61 -71
74 3 7 -16 33 -41 58 -37 38 -45 52 -45 83 0 28 -6 42 -25 57 -14 11 -35 38
-46 60 -30 59 -17 79 81 128 68 34 80 44 80 65 0 39 17 29 45 -25z m15 -122
c0 -17 -51 -55 -105 -80 -21 -9 -29 -8 -45 7 -31 28 -21 43 49 80 52 28 67 32
82 22 11 -7 19 -20 19 -29z m75 -126 c27 -19 14 -42 -47 -81 -56 -35 -65 -39
-83 -27 -33 22 -23 44 35 80 56 35 77 41 95 28z"/>
<path d="M6316 1805 c-3 -8 -3 -21 0 -29 3 -7 -6 -20 -19 -29 -31 -20 -67 -93
-67 -136 0 -107 117 -179 196 -119 16 12 52 44 81 71 34 33 57 48 67 44 25
-10 19 -43 -14 -81 -23 -25 -42 -36 -78 -42 -41 -8 -47 -13 -50 -35 -3 -24 1
-27 45 -38 26 -7 56 -14 65 -17 11 -3 19 3 23 17 4 11 24 38 45 59 43 43 65
104 55 151 -9 41 -49 86 -89 99 -44 14 -78 1 -136 -53 -94 -88 -98 -91 -115
-77 -56 46 36 140 138 140 23 0 27 4 27 28 0 27 -4 29 -72 45 -88 21 -94 21
-102 2z m108 -23 c49 -9 61 -32 17 -32 -75 0 -151 -63 -151 -125 0 -34 28 -65
58 -65 8 0 44 29 82 65 76 74 114 91 156 69 79 -41 81 -136 4 -210 -22 -22
-40 -45 -40 -51 0 -7 -3 -13 -6 -13 -18 0 -84 24 -84 31 0 4 19 10 42 14 61
11 108 60 108 113 0 40 -11 52 -47 52 -8 0 -42 -25 -75 -55 -85 -79 -102 -88
-141 -81 -64 12 -103 84 -85 154 5 18 27 51 49 73 30 30 38 45 34 60 -6 17 -3
19 17 14 13 -3 41 -9 62 -13z"/>
<path d="M6145 1489 c-41 -12 -91 -66 -103 -111 -13 -48 2 -108 26 -108 31 0
45 16 38 43 -8 34 12 76 40 83 59 15 160 -93 113 -121 -5 -4 -23 -1 -40 5 -24
10 -33 10 -54 -4 -25 -16 -32 -49 -17 -73 23 -36 106 -30 152 12 51 46 65 143
29 202 -34 55 -123 90 -184 72z m122 -39 c51 -31 67 -63 64 -134 -1 -41 -78
-116 -118 -116 -27 0 -53 15 -53 31 0 4 7 15 16 23 14 14 18 14 44 1 24 -12
34 -13 49 -3 47 29 29 98 -36 143 -73 49 -148 22 -148 -54 0 -43 -17 -52 -23
-12 -6 40 8 74 44 108 30 28 43 33 82 33 29 0 59 -8 79 -20z"/>
<path d="M2185 1456 c-98 -44 -126 -150 -64 -240 38 -56 68 -71 136 -71 55 0
65 3 93 30 43 41 60 76 60 125 0 47 -11 73 -49 113 -51 56 -113 71 -176 43z
m122 -23 c45 -21 85 -81 85 -127 0 -77 -76 -152 -144 -143 -71 9 -138 85 -138
155 0 58 77 132 138 132 13 0 40 -7 59 -17z"/>
<path d="M2238 1380 c-53 -28 -80 -67 -76 -109 6 -75 89 -74 156 3 37 42 41
77 12 106 -25 25 -45 25 -92 0z m80 -38 c5 -33 -22 -68 -68 -92 -39 -20 -40
-20 -59 -1 -27 27 -17 57 33 92 48 36 89 36 94 1z"/>
<path d="M5905 1250 c-58 -58 -58 -60 -40 -80 11 -12 25 -18 39 -14 16 4 33
-8 71 -47 28 -28 46 -53 40 -55 -50 -20 -60 -31 -60 -64 0 -65 75 -74 105 -12
8 17 22 32 31 32 9 0 32 23 52 52 35 49 36 53 20 70 -12 13 -25 17 -43 13 -21
-5 -34 3 -74 44 -35 35 -47 54 -42 67 6 15 -18 54 -33 54 -4 0 -33 -27 -66
-60z m77 2 c-3 -23 6 -36 53 -81 44 -42 61 -52 81 -48 13 2 27 0 30 -4 9 -14
-46 -78 -62 -72 -9 3 -20 -10 -34 -41 -20 -48 -46 -60 -69 -32 -16 19 -5 40
29 53 46 17 39 47 -24 110 -36 36 -59 51 -69 47 -38 -14 -33 10 10 51 26 25
49 45 53 45 4 0 5 -13 2 -28z"/>
<path d="M2437 1213 c-11 -3 -16 -10 -13 -20 3 -8 6 -21 6 -29 0 -10 13 -14
43 -14 82 0 98 -54 37 -124 -34 -38 -62 -49 -85 -32 -14 10 -15 15 -2 39 19
36 11 66 -19 79 -60 28 -102 -40 -67 -109 44 -89 153 -129 223 -81 54 37 80
83 80 142 0 106 -97 176 -203 149z m109 -29 c115 -55 90 -231 -37 -259 -66
-15 -165 68 -157 131 4 34 32 54 50 36 9 -9 9 -19 -1 -47 -35 -97 80 -111 144
-18 29 43 32 88 9 121 -12 17 -25 22 -60 22 -41 0 -53 7 -37 23 11 12 54 8 89
-9z"/>
<path d="M5713 1079 c-61 -50 -62 -51 -47 -75 12 -18 22 -22 39 -18 20 5 33
-7 91 -80 37 -47 73 -86 80 -86 15 0 94 88 94 105 0 20 -27 37 -48 31 -30 -10
-114 87 -106 120 6 25 -10 54 -30 54 -6 -1 -39 -23 -73 -51z m80 1 c-10 -38
86 -153 123 -148 13 2 23 0 24 -5 1 -11 -51 -77 -60 -77 -5 0 -38 39 -75 86
-58 74 -70 85 -91 80 -37 -10 -29 8 23 52 50 42 65 45 56 12z"/>
<path d="M5515 1084 c-28 -19 -57 -39 -65 -44 -22 -13 3 -60 32 -60 13 0 29
-9 36 -20 11 -18 8 -21 -23 -34 -19 -8 -44 -30 -55 -48 -58 -96 23 -248 132
-248 44 0 90 21 110 49 7 10 22 21 34 25 11 3 37 24 58 45 37 38 37 40 22 63
-12 18 -23 24 -40 21 -20 -4 -34 10 -99 102 -65 92 -74 110 -64 126 10 15 8
22 -8 39 l-20 20 -50 -36z m56 -22 c-12 -21 -6 -32 81 -154 61 -86 74 -98 99
-98 16 0 29 -5 29 -12 0 -18 -51 -68 -70 -68 -8 0 -30 -16 -48 -35 -55 -58
-121 -56 -179 7 -26 28 -45 93 -36 127 8 36 50 79 84 86 16 4 29 13 29 20 0
22 -50 75 -71 75 -30 0 -22 13 29 46 49 33 69 35 53 6z"/>
<path d="M5522 884 c-52 -36 -2 -165 74 -188 27 -8 74 28 74 57 0 11 -19 49
-41 84 -44 68 -65 77 -107 47z m89 -66 c44 -65 45 -90 1 -96 -31 -5 -57 13
-76 52 -29 61 -21 90 31 105 1 1 21 -27 44 -61z"/>
<path d="M2703 1004 c-15 -24 -15 -29 -2 -53 11 -20 22 -26 49 -26 27 0 38 6
49 26 13 24 13 29 -2 53 -12 18 -26 26 -47 26 -21 0 -35 -8 -47 -26z m76 -8
c18 -22 -4 -58 -32 -54 -25 3 -34 32 -17 53 16 19 34 19 49 1z"/>
<path d="M2900 901 c-5 -11 -7 -26 -4 -35 7 -19 -56 -136 -73 -136 -7 0 -13 4
-13 9 0 18 -31 41 -55 41 -15 0 -31 -10 -41 -24 -22 -35 -2 -77 46 -90 19 -6
42 -18 50 -27 8 -9 37 -24 64 -34 47 -17 50 -17 63 0 15 22 17 45 3 45 -18 0
-10 31 22 86 27 44 38 54 60 54 21 0 29 6 34 25 4 14 5 27 3 29 -24 16 -133
76 -139 76 -5 0 -14 -9 -20 -19z m92 -43 l53 -33 -30 -5 c-51 -9 -129 -154
-94 -176 6 -3 7 -10 2 -15 -13 -13 -85 13 -90 32 -3 11 -19 20 -43 24 -43 7
-63 25 -58 52 5 29 43 28 62 -2 28 -42 55 -30 99 45 25 44 36 72 32 88 -7 30
5 28 67 -10z"/>
<path d="M5927 839 c-49 -37 -26 -109 35 -109 14 0 33 9 43 20 52 57 -18 137
-78 89z m73 -29 c12 -22 -14 -60 -40 -60 -26 0 -44 34 -30 59 18 34 52 34 70
1z"/>
<path d="M5233 784 c-33 -17 -73 -69 -73 -96 0 -13 48 -44 55 -36 1 2 8 13 14
26 6 12 16 22 22 22 9 0 69 -121 69 -140 0 -4 -13 -13 -30 -20 -33 -14 -37
-27 -16 -55 12 -17 17 -18 40 -7 38 17 40 16 59 -23 18 -37 27 -41 58 -25 14
8 19 21 19 54 0 28 7 52 19 67 25 32 9 73 -26 64 -20 -5 -27 3 -63 74 -54 109
-82 127 -147 95z m72 -18 c10 -7 39 -51 65 -97 38 -69 50 -84 68 -82 26 3 27
-4 7 -31 -8 -11 -15 -39 -15 -63 0 -54 -20 -57 -43 -8 -18 37 -27 41 -58 24
-11 -6 -25 -8 -32 -6 -7 2 3 11 21 21 17 9 32 23 32 31 0 8 -17 48 -37 90 -40
81 -67 96 -96 54 -19 -26 -32 -8 -17 21 10 19 66 60 81 60 3 0 13 -6 24 -14z"/>
<path d="M3063 778 c-26 -13 -28 -25 -9 -51 11 -14 22 -16 59 -11 31 5 52 3
62 -6 15 -12 21 -71 9 -83 -4 -3 -41 12 -84 33 -71 36 -79 38 -92 23 -7 -9
-13 -39 -13 -69 0 -47 4 -57 35 -89 63 -65 157 -70 216 -11 81 81 63 210 -37
261 -32 17 -114 19 -146 3z m139 -24 c69 -36 91 -96 63 -169 -23 -60 -56 -85
-114 -85 -58 0 -108 29 -127 75 -14 33 -11 80 6 90 4 2 40 -11 80 -31 40 -19
78 -33 85 -30 7 2 16 19 20 36 15 68 -41 124 -104 102 -33 -12 -46 -5 -30 15
16 18 83 16 121 -3z"/>
<path d="M3074 595 c-8 -34 0 -53 30 -67 20 -9 30 -8 51 6 35 23 31 42 -15 66
-51 26 -58 25 -66 -5z m52 -15 c24 -10 26 -13 13 -26 -19 -19 -49 -8 -49 17 0
22 0 22 36 9z"/>
<path d="M5032 698 c-77 -29 -83 -33 -80 -57 2 -20 9 -27 30 -29 22 -3 29 -12
42 -49 9 -26 16 -50 16 -54 0 -4 -27 -16 -60 -27 l-60 -21 -10 42 c-6 23 -13
48 -15 54 -2 7 5 19 16 27 15 10 18 20 13 40 -8 32 -9 32 -111 5 -79 -21 -83
-23 -83 -50 0 -23 5 -28 28 -31 26 -3 28 -8 54 -108 32 -130 34 -154 8 -171
-22 -15 -18 -59 5 -59 18 0 196 48 203 55 10 10 -18 57 -32 52 -7 -3 -18 -2
-25 2 -14 9 -32 69 -23 75 18 10 115 35 122 31 5 -3 12 -19 15 -37 6 -25 3
-34 -14 -47 -24 -19 -19 -61 8 -61 29 0 196 68 195 79 -1 6 -2 17 -2 25 -1 9
-15 16 -34 18 -32 3 -35 7 -75 108 -45 113 -51 145 -28 153 11 5 12 12 4 37
-6 16 -14 30 -17 29 -4 0 -44 -14 -90 -31z m88 -7 c0 -6 -4 -13 -10 -16 -18
-11 -11 -51 31 -161 47 -125 53 -134 85 -134 13 0 24 -3 24 -8 0 -8 -162 -72
-169 -66 -2 2 4 13 14 24 13 15 16 30 12 61 -9 68 -21 73 -105 45 -40 -13 -75
-26 -78 -29 -9 -8 15 -85 32 -102 8 -8 25 -15 36 -15 12 0 19 -2 16 -5 -11
-11 -178 -52 -178 -43 0 5 7 11 15 14 26 10 26 40 0 150 -32 137 -43 164 -66
164 -37 0 -28 19 13 30 24 6 56 15 72 21 33 10 63 -5 33 -17 -11 -4 -17 -17
-17 -36 0 -42 21 -119 34 -124 6 -2 43 6 81 19 69 22 70 23 67 55 -3 48 -34
106 -57 110 -42 8 -34 20 27 45 70 28 88 32 88 18z"/>
<path d="M3350 679 c-9 -16 -8 -24 5 -39 16 -17 15 -24 -11 -104 -23 -70 -26
-89 -16 -110 17 -38 55 -57 124 -63 43 -4 70 -12 85 -25 22 -20 87 -33 219
-44 60 -6 62 -5 68 22 6 22 3 31 -15 45 -18 14 -21 22 -15 55 15 88 18 95 42
104 16 7 24 17 24 34 0 21 -6 25 -62 35 -35 7 -74 13 -88 15 -14 1 -32 5 -40
9 -44 18 -135 36 -139 26 -2 -6 -8 -4 -15 4 -9 13 -125 57 -148 57 -4 0 -12
-9 -18 -21z m128 -63 c-26 -20 -68 -123 -68 -164 0 -30 24 -44 71 -40 43 3 44
3 61 58 20 65 23 130 6 130 -8 0 -9 3 -2 10 13 13 114 -9 114 -24 0 -6 -8 -16
-19 -23 -20 -13 -55 -135 -49 -174 2 -20 10 -24 44 -27 55 -4 67 10 84 98 11
56 11 76 2 91 -19 29 -15 32 36 25 87 -13 101 -23 60 -41 -19 -8 -26 -24 -37
-89 -15 -77 -15 -79 7 -96 11 -10 18 -20 15 -24 -11 -11 -103 -7 -103 5 0 7
-14 8 -40 4 -46 -8 -100 7 -125 35 -14 16 -31 20 -75 20 -43 0 -64 5 -84 21
-32 25 -33 50 -6 126 22 63 26 108 10 118 -6 4 -8 10 -5 15 3 5 33 -1 67 -12
l62 -21 -26 -21z m45 -118 c-17 -66 -18 -68 -50 -68 -17 0 -35 4 -38 10 -10
17 34 150 51 150 8 0 17 7 21 15 4 12 9 10 20 -11 12 -24 12 -36 -4 -96z m175
39 c10 -12 -6 -119 -22 -145 -11 -19 -66 -15 -66 4 0 18 29 134 36 146 8 12
41 9 52 -5z"/>
<path d="M4568 576 c-17 -9 -42 -12 -67 -9 -25 3 -50 0 -70 -10 -17 -9 -31
-11 -31 -6 0 10 -43 11 -117 3 -50 -6 -53 -9 -53 -34 0 -16 7 -30 15 -34 11
-4 15 -23 15 -79 0 -70 -1 -74 -26 -86 -14 -6 -30 -9 -35 -6 -5 4 -9 42 -9 86
0 62 3 81 15 85 9 4 15 19 15 35 0 26 -3 29 -34 29 -18 0 -54 3 -80 6 l-46 7
0 -33 c0 -18 7 -38 16 -44 13 -10 14 -23 7 -81 l-8 -70 -35 0 -35 0 3 70 c3
55 8 73 23 84 11 8 19 25 19 41 0 26 -3 27 -61 34 -100 10 -106 9 -112 -19 -3
-19 1 -29 15 -36 17 -9 19 -17 13 -57 -12 -90 -9 -142 10 -162 27 -30 87 -43
137 -30 34 10 48 9 79 -6 28 -12 50 -15 81 -9 24 4 62 6 85 6 24 -1 61 3 83 9
33 9 40 15 40 36 0 17 -8 27 -23 33 -21 8 -25 18 -30 77 -6 62 -5 69 18 90 20
19 26 20 36 8 6 -8 17 -14 24 -14 9 0 15 -22 20 -62 10 -100 15 -117 42 -138
53 -41 191 -15 222 43 19 35 7 75 -24 83 l-25 6 20 25 c47 60 8 143 -67 143
-21 0 -50 -6 -65 -14z m114 -23 c22 -20 23 -61 3 -90 -8 -11 -40 -31 -70 -44
-47 -19 -55 -27 -55 -49 0 -33 17 -50 51 -50 31 0 46 15 51 50 2 19 9 25 28
25 38 0 38 -36 0 -68 -54 -46 -170 -45 -184 2 -5 16 -26 164 -26 182 0 5 -9 9
-20 9 -11 0 -20 4 -20 10 0 16 50 23 77 11 21 -10 30 -8 57 9 38 24 83 26 108
3z m-653 -19 c3 -2 -5 -13 -16 -23 -15 -14 -21 -37 -26 -91 -3 -39 -3 -78 0
-86 10 -27 50 -35 88 -19 l35 14 0 86 c0 67 -3 87 -15 91 -34 13 -11 24 50 24
68 0 79 -7 45 -28 -18 -11 -20 -23 -20 -101 0 -100 9 -117 59 -106 52 11 64
35 59 119 -3 61 -7 78 -23 90 -26 19 -21 22 53 29 49 5 62 4 62 -7 0 -8 -7
-16 -15 -20 -22 -8 -21 -158 1 -180 8 -9 20 -16 25 -16 5 0 9 -4 9 -9 0 -4
-20 -14 -45 -21 -35 -10 -48 -10 -59 -1 -10 8 -21 9 -33 3 -41 -22 -88 -22
-125 -2 -29 15 -43 18 -63 10 -52 -20 -125 -8 -148 24 -4 6 -4 55 -1 108 6 85
4 98 -10 104 -9 3 -16 11 -16 16 0 9 119 2 129 -8z m609 -161 c-2 -22 -8 -28
-28 -28 -33 0 -39 32 -8 44 36 15 40 13 36 -16z"/>
<path d="M4562 524 c-20 -14 -23 -22 -17 -53 4 -20 10 -40 15 -44 14 -15 69
22 76 50 13 51 -30 78 -74 47z m52 -22 c6 -10 -21 -52 -33 -52 -15 0 -22 32
-10 46 13 16 35 18 43 6z"/>
</g>
</svg>
